<svg width="46" height="72" viewBox="0 0 46 72" fill="none" xmlns="http://www.w3.org/2000/svg">
<g id="Clip path group">
<mask id="mask0_102_301" style="mask-type:luminance" maskUnits="userSpaceOnUse" x="0" y="0" width="46" height="72">
<g id="clip0">
<path id="Vector" d="M46 0.351562H0V71.2308H46V0.351562Z" fill="white"/>
</g>
</mask>
<g mask="url(#mask0_102_301)">
<g id="Group">
<path id="Vector_2" d="M39.5736 3.21015C39.6591 2.65482 39.818 2.16311 40.0494 1.73611C40.2807 1.3091 40.6364 0.847583 41.1165 0.351562H34.4326C34.9127 0.847583 35.2684 1.3091 35.4997 1.73611C35.7311 2.16311 35.889 2.65482 35.9755 3.21015C36.0609 3.76548 36.1041 4.52245 36.1041 5.4789V10.6063C36.1041 11.5637 36.0609 12.3197 35.9755 12.875C35.889 13.4303 35.7311 13.922 35.4997 14.3491C35.2684 14.7761 34.9127 15.2376 34.4326 15.7336H41.1165C40.6364 15.2376 40.2807 14.7771 40.0494 14.3491C39.818 13.922 39.6591 13.4303 39.5736 12.875C39.4882 12.3197 39.445 11.5637 39.445 10.6063V5.4789C39.445 4.52245 39.4882 3.76548 39.5736 3.21015Z" fill="white"/>
<path id="Vector_3" d="M29.5488 5.47891C29.9089 4.21406 30.3976 3.15839 31.0138 2.313C31.6312 1.46653 32.428 0.813078 33.4043 0.351562H29.5488V5.47891Z" fill="white"/>
<path id="Vector_4" d="M44.535 2.313C45.1524 3.15947 45.64 4.21514 46 5.47891V0.351562H42.1445C43.1208 0.813078 43.9188 1.46653 44.535 2.313Z" fill="white"/>
<path id="Vector_5" d="M5.14102 3.21015C5.22644 2.65482 5.38537 2.16311 5.61674 1.73611C5.84812 1.3091 6.20383 0.847583 6.68387 0.351562H0C0.480045 0.847583 0.835754 1.3091 1.06713 1.73611C1.2985 2.16311 1.45635 2.65482 1.54285 3.21015C1.62826 3.76548 1.67151 4.52245 1.67151 5.4789V10.6063C1.67151 11.5637 1.62826 12.3197 1.54285 12.875C1.45635 13.4303 1.2985 13.922 1.06713 14.3491C0.835754 14.7761 0.480045 15.2376 0 15.7336H6.68387C6.20383 15.2376 5.84812 14.7771 5.61674 14.3491C5.38537 13.922 5.22644 13.4303 5.14102 12.875C5.05453 12.3197 5.01236 11.5637 5.01236 10.6063V5.4789C5.01236 4.52245 5.05561 3.76548 5.14102 3.21015Z" fill="white"/>
<path id="Vector_6" d="M25.9498 11.8884L18.7773 0.351562C18.2118 1.41154 17.9285 2.45426 17.9285 3.47973C17.9285 4.88152 18.4086 6.43644 19.3676 8.14556C19.573 8.50464 19.6757 8.81195 19.6757 9.06859C19.6757 9.39316 19.4735 9.66705 19.0713 9.88918C18.6681 10.1113 17.9793 10.3248 17.002 10.5297C18.0821 10.5297 18.9254 10.5729 19.5341 10.658C20.1417 10.7443 20.6045 10.8802 20.9223 11.0678C21.2391 11.2564 21.5008 11.5293 21.7062 11.8884C22.1343 12.641 22.3484 13.2816 22.3484 13.811C22.3484 14.6995 21.7397 15.3411 20.5234 15.7336H30.5751C29.6496 15.477 28.8312 15.0542 28.1198 14.4644C27.4105 13.8757 26.6861 13.0163 25.9498 11.8884Z" fill="white"/>
<path id="Vector_7" d="M13.4164 10.6062L13.238 11.1832C12.8499 12.3305 12.3104 13.2534 11.6173 13.9522C10.8118 14.7642 9.69823 15.3583 8.27539 15.7336H9.16304H13.4164H16.8751C16.8751 15.7336 14.0424 14.349 13.4164 10.6062Z" fill="white"/>
<path id="Vector_8" d="M6.34979 21.6233C6.4698 21.0852 6.72604 20.6021 7.12067 20.1751C7.51422 19.7481 8.14022 19.2866 8.9976 18.7905H0C0.856297 19.2866 1.4823 19.7481 1.87693 20.1751C2.27048 20.6021 2.52781 21.0852 2.64782 21.6233C2.76783 22.1613 2.82729 22.9269 2.82729 23.9179V29.0452C2.82729 30.0362 2.76675 30.8018 2.64782 31.3399C2.52781 31.878 2.27048 32.3611 1.87693 32.7881C1.4823 33.2151 0.857378 33.6766 0 34.1725H8.9976C8.14022 33.6766 7.5153 33.2162 7.12067 32.7881C6.72604 32.3611 6.4698 31.878 6.34979 31.3399C6.22977 30.8018 6.17031 30.0362 6.17031 29.0452V23.9179C6.16923 22.9269 6.22977 22.1624 6.34979 21.6233Z" fill="white"/>
<path id="Vector_9" d="M26.4003 20.752C27.0176 21.5985 27.5052 22.6542 27.8653 23.9179V18.7905H24.0098C24.9872 19.2521 25.784 19.9055 26.4003 20.752Z" fill="white"/>
<path id="Vector_10" d="M12.8791 20.752C13.4964 19.9055 14.2933 19.2521 15.2696 18.7905H11.4141V23.9179C11.7741 22.653 12.2617 21.5973 12.8791 20.752Z" fill="white"/>
<path id="Vector_11" d="M21.4389 21.6491C21.5243 21.0938 21.6832 20.6021 21.9146 20.1751C22.146 19.7481 22.5017 19.2866 22.9817 18.7905H16.2979C16.7768 19.2866 17.1336 19.7481 17.365 20.1751C17.5964 20.6021 17.7542 21.0938 17.8407 21.6491C17.9261 22.2045 17.9694 22.9615 17.9694 23.9179V29.0452C17.9694 30.0028 17.9261 30.7587 17.8407 31.314C17.7542 31.8694 17.5964 32.3611 17.365 32.7881C17.1336 33.2151 16.7779 33.6766 16.2979 34.1725H22.9817C22.5017 33.6766 22.146 33.2162 21.9146 32.7881C21.6832 32.3611 21.5243 31.8694 21.4389 31.314C21.3535 30.7587 21.3102 30.0028 21.3102 29.0452V23.9179C21.3102 22.9615 21.3535 22.2045 21.4389 21.6491Z" fill="white"/>
<path id="Vector_12" d="M41.5312 37.4087C42.3195 37.6654 42.9454 37.9435 43.4082 38.2422C43.8709 38.5409 44.2527 38.9216 44.5522 39.3831C44.8517 39.8446 45.1305 40.469 45.3878 41.255V37.4098H41.5312V37.4087Z" fill="white"/>
<path id="Vector_13" d="M43.0734 46.8438V42.9985C42.6625 43.5118 42.0711 43.9518 41.2992 44.3195C40.5283 44.6872 39.8342 44.8878 39.2168 44.9223C39.8342 44.9567 40.5229 45.1573 41.2862 45.5251C42.0495 45.8916 42.6452 46.3306 43.0734 46.8438Z" fill="white"/>
<path id="Vector_14" d="M37.932 49.934C37.8455 49.3787 37.8034 48.6228 37.8034 47.6652V42.5379C37.8034 41.5804 37.8455 40.8245 37.932 40.2692C38.0175 39.7139 38.1764 39.2221 38.4078 38.7951C38.6391 38.3681 38.9948 37.9066 39.4749 37.4106H32.791C33.2711 37.9066 33.6268 38.3681 33.8581 38.7951C34.0895 39.2221 34.2474 39.7139 34.3339 40.2692C34.4193 40.8245 34.4625 41.5815 34.4625 42.5379V47.6652C34.4625 48.6228 34.4193 49.3787 34.3339 49.934C34.2484 50.4894 34.0895 50.9811 33.8581 51.4081C33.6268 51.8351 33.2711 52.2966 32.791 52.7927H39.4749C38.9948 52.2966 38.6391 51.8362 38.4078 51.4081C38.1764 50.9811 38.0175 50.4894 37.932 49.934Z" fill="white"/>
<path id="Vector_15" d="M43.4072 51.9582C42.9445 52.258 42.3185 52.5351 41.5303 52.7917H45.3858V48.9465C45.1284 49.7326 44.8495 50.3569 44.55 50.8185C44.2516 51.2789 43.87 51.6596 43.4072 51.9582Z" fill="white"/>
<path id="Vector_16" d="M6.36276 51.2163C5.92596 50.6609 5.61242 49.9471 5.42429 49.0758C5.23509 48.2045 5.14211 47.0756 5.14211 45.692V42.359C5.14211 40.9917 5.24049 39.9749 5.43727 39.3086C5.63404 38.6421 6.0503 37.9499 6.68387 37.2317H0C0.633573 37.9499 1.04983 38.6421 1.2466 39.3086C1.44338 39.9749 1.54177 40.9917 1.54177 42.359V46.4609C1.54177 47.8282 1.8845 48.9733 2.56997 49.8964C3.25544 50.8194 4.11282 51.5031 5.14102 51.9473C6.16923 52.3916 7.19743 52.6137 8.22564 52.6137C7.42016 52.2374 6.79956 51.7716 6.36276 51.2163Z" fill="white"/>
<path id="Vector_17" d="M13.5864 39.3065C13.7832 39.9729 13.8816 40.9898 13.8816 42.357V45.6901C13.8816 47.0747 13.7875 48.2025 13.5983 49.0739C13.4091 49.9451 13.0967 50.6589 12.6599 51.2143C12.2231 51.7696 11.6014 52.2354 10.7959 52.6117C11.8241 52.6117 12.8523 52.3896 13.8805 51.9454C14.9087 51.5011 15.765 50.8175 16.4516 49.8944C17.137 48.9714 17.4798 47.8262 17.4798 46.4589V42.357C17.4798 40.9898 17.5782 39.9729 17.7749 39.3065C17.9717 38.6401 18.388 37.9478 19.0215 37.2297H12.3377C12.9734 37.9478 13.3886 38.6401 13.5864 39.3065Z" fill="white"/>
<path id="Vector_18" d="M25.5429 38.1009C24.3687 37.5197 23.0702 37.2297 21.6484 37.2297C24.0649 38.8364 25.2726 41.4006 25.2726 44.9212C25.2726 48.4257 24.0649 50.9889 21.6484 52.6129C23.0713 52.6129 24.3687 52.3228 25.5429 51.7415C26.717 51.1603 27.6512 50.289 28.3453 49.1266C29.0394 47.9643 29.3865 46.5624 29.3865 44.9224C29.3865 43.2812 29.0394 41.8804 28.3453 40.718C27.6512 39.5545 26.717 38.6822 25.5429 38.1009Z" fill="white"/>
<path id="Vector_19" d="M33.6097 26.7464C33.8713 26.7464 34.1611 26.6924 34.48 26.5868C34.7979 26.4811 35.2347 26.3064 35.7904 26.0617C36.6727 25.6853 37.4533 25.3931 38.1312 25.1807C38.8091 24.9693 39.5324 24.8647 40.3 24.8647C41.7715 24.8647 43.1684 25.3208 44.4918 26.2331C44.4431 26.2169 44.361 26.2093 44.2464 26.2093C43.9847 26.2093 43.695 26.2612 43.3771 26.3668C43.0581 26.4746 42.6213 26.6493 42.0656 26.8941C41.1834 27.2683 40.4028 27.5626 39.7249 27.774C39.047 27.9864 38.3236 28.0921 37.556 28.0921C36.0845 28.0921 34.6887 27.6349 33.3643 26.7237C33.414 26.7388 33.4951 26.7464 33.6097 26.7464Z" fill="white"/>
<path id="Vector_20" d="M23.8928 58.6822C24.0128 58.1442 24.269 57.6612 24.6636 57.2341C25.0572 56.8071 25.6832 56.3456 26.5406 55.8496H17.543C18.3993 56.3456 19.0253 56.8071 19.4199 57.2341C19.8135 57.6612 20.0708 58.1442 20.1908 58.6822C20.3108 59.2203 20.3703 59.9859 20.3703 60.9769V66.1043C20.3703 67.0952 20.3097 67.8608 20.1908 68.3989C20.0708 68.937 19.8135 69.42 19.4199 69.847C19.0253 70.274 18.4003 70.7356 17.543 71.2316H26.5406C25.6832 70.7356 25.0583 70.2752 24.6636 69.847C24.269 69.42 24.0128 68.937 23.8928 68.3989C23.7728 67.8608 23.7133 67.0952 23.7133 66.1043V60.9769C23.7122 59.9859 23.7728 59.2203 23.8928 58.6822Z" fill="white"/>
<path id="Vector_21" d="M43.9432 57.8091C44.5606 58.6556 45.0482 59.7113 45.4082 60.9751V55.8477H41.5527C42.5301 56.3092 43.327 56.9637 43.9432 57.8091Z" fill="white"/>
<path id="Vector_22" d="M30.422 57.8091C31.0394 56.9627 31.8362 56.3092 32.8125 55.8477H28.957V60.9751C29.3171 59.7113 29.8047 58.6556 30.422 57.8091Z" fill="white"/>
<path id="Vector_23" d="M38.9818 58.7072C39.0673 58.1519 39.2262 57.6602 39.4576 57.2332C39.6889 56.8062 40.0446 56.3447 40.5247 55.8486H33.8408C34.3198 56.3447 34.6766 56.8062 34.9079 57.2332C35.1393 57.6602 35.2972 58.1519 35.3837 58.7072C35.4691 59.2626 35.5123 60.0195 35.5123 60.9759V66.1033C35.5123 67.0608 35.4691 67.8168 35.3837 68.3721C35.2972 68.9274 35.1393 69.4191 34.9079 69.8462C34.6766 70.2732 34.3209 70.7347 33.8408 71.2306H40.5247C40.0446 70.7347 39.6889 70.2742 39.4576 69.8462C39.2262 69.4191 39.0673 68.9274 38.9818 68.3721C38.8964 67.8168 38.8532 67.0608 38.8532 66.1033V60.9759C38.8543 60.0185 38.8964 59.2626 38.9818 58.7072Z" fill="white"/>
</g>
</g>
</g>
</svg>
